<svg width="1404" height="772" viewBox="0 0 1404 772" fill="none" xmlns="http://www.w3.org/2000/svg">
<path opacity="0.2" d="M1070.99 285.562C1139.95 249.757 1211.81 247.221 1273.71 258.66C1336.09 270.188 1388.39 295.913 1417.49 316.127L1417.2 316.538L1416.92 316.948C1387.93 296.81 1335.76 271.144 1273.53 259.644C1211.79 248.234 1140.17 250.772 1071.45 286.448L1069.82 287.298C1026.65 310.054 1010.1 343.072 1005.7 380.009C1001.29 417.001 1009.08 457.891 1014.63 496.381C1017.4 515.608 1019.61 534.233 1019.45 551.431C1019.28 568.629 1016.73 584.434 1009.96 598.009C996.394 625.212 965.976 643.252 904.497 645.874C781.54 651.118 709.733 588.438 644.43 560.643C611.772 546.742 580.726 541.529 545.589 557.682C510.406 573.856 471.048 611.483 421.893 683.487C372.702 755.544 331.4 777.311 294.297 770.681C275.778 767.371 258.388 756.994 241.669 742.419C224.949 727.843 208.867 709.038 192.968 688.825C161.143 648.364 130.068 602.296 95.9556 572.847C78.9113 558.132 61.1517 547.608 42.2144 544.008C23.2922 540.411 3.13986 543.716 -18.7222 556.756L-18.978 556.327L-19.2339 555.897C2.81236 542.747 23.2106 539.377 42.4009 543.025C61.576 546.671 79.4927 557.313 96.6089 572.09C130.818 601.623 162.004 647.842 193.754 688.207C209.643 708.407 225.678 727.152 242.326 741.665C258.974 756.179 276.202 766.431 294.473 769.696C330.952 776.216 371.922 754.914 421.068 682.923C470.249 610.881 509.734 573.064 545.172 556.772C580.658 540.46 612.017 545.76 644.822 559.723C710.444 587.655 781.798 650.107 904.455 644.875C965.782 642.259 995.738 624.287 1009.07 597.563C1015.75 584.174 1018.28 568.536 1018.45 551.421C1018.61 534.305 1016.41 515.745 1013.64 496.523C1008.1 458.115 1000.28 417.05 1004.7 379.891C1009.14 342.676 1025.85 309.344 1069.36 286.413L1070.99 285.562ZM1052.69 239.001C1121.66 203.196 1193.51 200.661 1255.41 212.1C1317.79 223.627 1370.09 249.352 1399.19 269.566L1398.91 269.978L1398.62 270.388C1369.63 250.249 1317.46 224.583 1255.23 213.083C1193.49 201.674 1121.87 204.211 1053.15 239.888L1051.53 240.737C1008.36 263.494 991.801 296.511 987.401 333.448C982.994 370.441 990.781 411.33 996.333 449.82C999.106 469.048 1001.32 487.672 1001.15 504.87C1000.99 522.068 998.44 537.874 991.668 551.448C978.099 578.651 947.681 596.691 886.202 599.314C763.245 604.558 691.438 541.878 626.135 514.082C593.477 500.181 562.431 494.969 527.294 511.121C492.111 527.295 452.754 564.922 403.598 636.927C354.408 708.983 313.105 730.751 276.002 724.12C257.483 720.81 240.093 710.434 223.375 695.858C206.654 681.282 190.572 662.477 174.673 642.265C142.848 601.803 111.773 555.736 77.6606 526.286C60.6163 511.571 42.8569 501.048 23.9194 497.447C4.99715 493.85 -15.1549 497.155 -37.0171 510.195L-37.2729 509.767L-37.5288 509.337C-15.4824 496.187 4.91554 492.817 24.106 496.465C43.2811 500.11 61.1977 510.753 78.314 525.529C112.523 555.063 143.709 601.281 175.459 641.646C191.349 661.847 207.383 680.592 224.031 695.104C240.679 709.618 257.907 719.87 276.178 723.136C312.657 729.655 353.627 708.354 402.773 636.362C451.954 564.32 491.439 526.503 526.877 510.212C562.363 493.899 593.722 499.199 626.527 513.162C692.149 541.094 763.503 603.546 886.16 598.314C947.487 595.699 977.443 577.726 990.774 551.002C997.452 537.613 999.987 521.976 1000.15 504.86C1000.32 487.745 998.116 469.184 995.343 449.963C989.803 411.555 981.982 370.49 986.409 333.33C990.842 296.115 1007.56 262.784 1051.06 239.853L1052.69 239.001ZM1034.4 192.439C1103.36 156.635 1175.22 154.099 1237.12 165.538C1299.5 177.066 1351.8 202.791 1380.9 223.005L1380.61 223.416L1380.33 223.826C1351.34 203.688 1299.17 178.022 1236.94 166.522C1175.2 155.112 1103.58 157.65 1034.86 193.326L1033.23 194.176C990.063 216.932 973.506 249.95 969.106 286.887C964.699 323.879 972.486 364.769 978.038 403.259C980.811 422.486 983.024 441.111 982.858 458.309C982.691 475.507 980.145 491.312 973.374 504.887C959.804 532.089 929.386 550.13 867.907 552.752C744.95 557.996 673.143 495.316 607.84 467.521C575.183 453.62 544.136 448.407 509 464.56C473.816 480.734 434.459 518.361 385.303 590.365C336.113 662.421 294.81 684.189 257.708 677.559C239.188 674.249 221.798 663.872 205.08 649.297C188.36 634.721 172.277 615.916 156.378 595.703C124.553 555.242 93.4778 509.174 59.3657 479.725C42.3215 465.01 24.5619 454.486 5.62451 450.886C-13.2977 447.288 -33.45 450.594 -55.312 463.634L-55.5679 463.205L-55.8237 462.775C-33.7775 449.625 -13.3793 446.255 5.81104 449.903C24.9861 453.549 42.9028 464.191 60.019 478.968C94.2283 508.501 125.414 554.72 157.165 595.085C173.054 615.285 189.089 634.03 205.736 648.543C222.384 663.057 239.612 673.309 257.883 676.574C294.362 683.093 335.332 661.792 384.478 589.801C433.659 517.759 473.144 479.942 508.583 463.65C544.068 447.338 575.427 452.638 608.232 466.601C673.855 494.533 745.208 556.985 867.865 551.753C929.192 549.137 959.149 531.165 972.479 504.44C979.157 491.052 981.692 475.414 981.858 458.299C982.024 441.183 979.821 422.623 977.048 403.401C971.509 364.993 963.687 323.928 968.114 286.769C972.547 249.554 989.265 216.222 1032.77 193.291L1034.4 192.439ZM1016.1 145.879C1085.07 110.074 1156.92 107.539 1218.82 118.978C1281.2 130.505 1333.5 156.23 1362.6 176.444L1362.31 176.855L1362.03 177.266C1333.04 157.127 1280.87 131.461 1218.64 119.961C1156.9 108.552 1085.28 111.089 1016.56 146.766L1014.94 147.615C971.767 170.372 955.21 203.389 950.81 240.326C946.403 277.319 954.19 318.208 959.742 356.698C962.515 375.926 964.729 394.55 964.562 411.748C964.396 428.946 961.849 444.751 955.078 458.326C941.508 485.529 911.091 503.569 849.611 506.191C726.654 511.436 654.847 448.756 589.544 420.96C556.887 407.059 525.84 401.847 490.704 417.999C455.52 434.173 416.163 471.8 367.007 543.805C317.817 615.861 276.514 637.629 239.412 630.998C220.893 627.688 203.502 617.311 186.784 602.736C170.064 588.16 153.981 569.355 138.083 549.143C106.257 508.681 75.1819 462.614 41.0698 433.164C24.0255 418.449 6.26604 407.925 -12.6714 404.325C-31.5936 400.728 -51.7458 404.033 -73.6079 417.073L-73.8638 416.645L-74.1196 416.215C-52.0733 403.065 -31.6752 399.695 -12.4849 403.343C6.69028 406.988 24.6069 417.63 41.7231 432.407C75.9324 461.941 107.118 508.159 138.869 548.524C154.758 568.725 170.793 587.47 187.44 601.982C204.088 616.496 221.316 626.748 239.587 630.014C276.066 636.533 317.036 615.231 366.182 543.24C415.363 471.198 454.848 433.381 490.287 417.09C525.772 400.777 557.131 406.077 589.936 420.04C655.559 447.972 726.912 510.424 849.569 505.192C910.896 502.577 940.853 484.604 954.183 457.88C960.862 444.491 963.396 428.854 963.562 411.738C963.728 394.623 961.525 376.062 958.752 356.841C953.213 318.433 945.391 277.367 949.818 240.208C954.251 202.993 970.969 169.662 1014.47 146.73L1016.1 145.879Z" fill="url(#paint0_linear_1_296)"/>
<path opacity="0.2" d="M1065.23 491.173C1134.89 527.341 1207.48 529.902 1270 518.347C1333.02 506.702 1385.85 480.717 1415.24 460.297L1414.95 459.887L1414.67 459.476C1385.39 479.819 1332.69 505.746 1269.82 517.364C1207.45 528.889 1135.11 526.325 1065.69 490.286L1064.05 489.428C1020.44 466.44 1003.71 433.085 999.269 395.772C994.817 358.403 1002.68 317.098 1008.29 278.218C1011.09 258.796 1013.33 239.982 1013.16 222.61C1012.99 205.237 1010.42 189.273 1003.58 175.561C989.873 148.085 959.149 129.862 897.047 127.213C772.844 121.916 700.31 185.23 634.343 213.309C601.353 227.351 569.99 232.617 534.495 216.3C498.953 199.962 459.196 161.952 409.541 89.2163C359.851 16.429 318.131 -5.55713 280.655 1.14014C261.949 4.48315 244.383 14.9651 227.495 29.688C210.606 44.4119 194.361 63.4069 178.301 83.8247C146.152 124.696 114.761 171.232 80.3027 200.981C63.0852 215.845 45.1444 226.476 26.0137 230.113C6.89799 233.747 -13.46 230.408 -35.5449 217.235L-36.0566 218.094C-13.7875 231.377 6.81642 234.78 26.2002 231.095C45.5687 227.413 63.6665 216.664 80.9561 201.738C115.512 171.905 147.014 125.218 179.087 84.4429C195.137 64.0372 211.336 45.1014 228.152 30.4409C244.97 15.7798 262.373 5.42316 280.831 2.12451C317.683 -4.46136 359.07 17.0579 408.715 89.7798C458.395 162.553 498.28 200.753 534.077 217.209C569.921 233.687 601.597 228.335 634.734 214.23C701.021 186.015 773.101 122.928 897.004 128.212C958.954 130.855 989.217 149.01 1002.68 176.007C1009.43 189.533 1011.99 205.33 1012.16 222.62C1012.33 239.91 1010.1 258.659 1007.3 278.076C1001.7 316.874 993.804 358.355 998.275 395.89C1002.75 433.481 1019.64 467.15 1063.58 490.313L1065.23 491.173ZM1046.75 538.207C1116.41 574.374 1189 576.935 1251.52 565.38C1314.54 553.736 1367.36 527.75 1396.76 507.331L1396.47 506.92L1396.19 506.509C1366.9 526.852 1314.21 552.78 1251.34 564.397C1188.97 575.922 1116.63 573.359 1047.21 537.319L1045.57 536.461C1001.96 513.473 985.232 480.118 980.787 442.805C976.336 405.437 984.202 364.132 989.81 325.251C992.611 305.829 994.846 287.015 994.678 269.643C994.509 252.271 991.938 236.306 985.099 222.594C971.393 195.118 940.668 176.895 878.565 174.247C754.362 168.949 681.828 232.264 615.861 260.342C582.871 274.384 551.509 279.651 516.014 263.334C480.472 246.996 440.714 208.985 391.06 136.25C341.37 63.4623 299.649 41.476 262.174 48.1733C243.468 51.5164 225.902 61.9983 209.014 76.7212C192.124 91.4451 175.879 110.44 159.819 130.858C127.671 171.729 96.28 218.265 61.8213 248.014C44.6037 262.878 26.663 273.509 7.53223 277.146C-11.5834 280.78 -31.9414 277.441 -54.0264 264.268L-54.5381 265.127C-32.269 278.41 -11.665 281.813 7.71875 278.128C27.0873 274.446 45.185 263.697 62.4746 248.771C97.0306 218.938 128.533 172.252 160.605 131.476C176.656 111.07 192.854 92.1356 209.671 77.4751C226.488 62.8138 243.892 52.4564 262.35 49.1577C299.202 42.5718 340.588 64.0913 390.233 136.813C439.914 209.586 479.798 247.786 515.596 264.243C551.44 280.72 583.116 275.368 616.253 261.263C682.54 233.048 754.62 169.961 878.522 175.246C940.472 177.888 970.736 196.043 984.203 223.041C990.95 236.566 993.51 252.363 993.678 269.653C993.845 286.943 991.62 305.692 988.819 325.109C983.223 363.907 975.323 405.388 979.794 442.923C984.272 480.514 1001.16 514.183 1045.1 537.346L1046.75 538.207ZM1028.27 585.241C1097.93 621.408 1170.52 623.969 1233.04 612.415C1296.06 600.77 1348.88 574.784 1378.28 554.365L1377.99 553.955L1377.71 553.543C1348.42 573.887 1295.73 599.814 1232.86 611.431C1170.49 622.957 1098.15 620.393 1028.73 584.353L1027.09 583.496C983.476 560.507 966.752 527.152 962.307 489.839C957.855 452.471 965.721 411.166 971.329 372.286C974.13 352.863 976.365 334.049 976.197 316.677C976.029 299.305 973.458 283.34 966.618 269.628C952.912 242.152 922.188 223.93 860.085 221.281C735.882 215.983 663.348 279.298 597.381 307.376C564.391 321.418 533.028 326.686 497.533 310.369C461.991 294.03 422.234 256.02 372.579 183.284C322.889 110.496 281.169 88.5102 243.693 95.2075C224.987 98.5505 207.422 109.032 190.533 123.755C173.644 138.479 157.399 157.474 141.339 177.892C109.191 218.764 77.7995 265.299 43.3408 295.048C26.1232 309.913 8.18252 320.543 -10.9482 324.18C-30.0639 327.814 -50.4219 324.475 -72.5068 311.302L-73.0186 312.162C-50.7494 325.445 -30.1455 328.848 -10.7617 325.163C8.6068 321.48 26.7046 310.732 43.9941 295.805C78.5501 265.972 110.052 219.286 142.125 178.51C158.175 158.105 174.374 139.17 191.19 124.509C208.008 109.848 225.411 99.4906 243.869 96.1919C280.721 89.606 322.108 111.125 371.753 183.847C421.433 256.621 461.318 294.821 497.115 311.277C532.959 327.754 564.635 322.402 597.772 308.297C664.06 280.083 736.139 216.995 860.042 222.28C921.992 224.922 952.255 243.077 965.723 270.075C972.469 283.6 975.03 299.398 975.197 316.687C975.365 333.977 973.139 352.726 970.339 372.143C964.743 410.941 956.842 452.422 961.313 489.958C965.792 527.549 982.679 561.217 1026.62 584.38L1028.27 585.241ZM1009.79 632.274C1079.45 668.441 1152.03 671.002 1214.56 659.448C1277.57 647.803 1330.4 621.817 1359.8 601.398L1359.51 600.988L1359.23 600.577C1329.94 620.92 1277.24 646.847 1214.38 658.464C1152.01 669.99 1079.66 667.426 1010.25 631.386L1008.61 630.529C964.995 607.54 948.27 574.186 943.825 536.873C939.374 499.504 947.24 458.199 952.848 419.319C955.649 399.896 957.884 381.082 957.716 363.71C957.548 346.338 954.976 330.373 948.137 316.662C934.431 289.185 903.706 270.963 841.604 268.314C717.4 263.016 644.866 326.331 578.899 354.41C545.909 368.452 514.547 373.719 479.052 357.402C443.51 341.063 403.752 303.053 354.098 230.317C304.408 157.53 262.688 135.543 225.212 142.241C206.506 145.584 188.94 156.066 172.052 170.789C155.162 185.512 138.917 204.507 122.857 224.925C90.7091 265.797 59.3181 312.333 24.8594 342.082C7.64181 356.946 -10.2989 367.576 -29.4297 371.213C-48.5453 374.847 -68.9034 371.509 -90.9883 358.335L-91.5 359.195C-69.2309 372.478 -48.6269 375.881 -29.2432 372.196C-9.87466 368.514 8.22312 357.765 25.5127 342.838C60.0687 313.006 91.5707 266.319 123.644 225.543C139.694 205.138 155.892 186.203 172.709 171.542C189.527 156.881 206.93 146.524 225.388 143.225C262.24 136.639 303.626 158.159 353.271 230.88C402.952 303.654 442.836 341.854 478.634 358.31C514.478 374.788 546.154 369.435 579.291 355.331C645.578 327.116 717.658 264.028 841.561 269.313C903.511 271.955 933.774 290.11 947.241 317.108C953.988 330.633 956.548 346.431 956.716 363.72C956.883 381.01 954.658 399.76 951.857 419.176C946.261 457.974 938.361 499.455 942.832 536.991C947.31 574.582 964.197 608.25 1008.14 631.414L1009.79 632.274Z" fill="url(#paint1_linear_1_296)"/>
<defs>
<linearGradient id="paint0_linear_1_296" x1="97.4132" y1="604.589" x2="1404.72" y2="604.589" gradientUnits="userSpaceOnUse">
<stop offset="0.341667" stop-color="#4535AF" stop-opacity="0.7"/>
<stop offset="0.511553" stop-color="#F8EFF4" stop-opacity="0.1"/>
<stop offset="0.851637" stop-color="#4535AF" stop-opacity="0.8"/>
</linearGradient>
<linearGradient id="paint1_linear_1_296" x1="81.7732" y1="168.915" x2="1402.35" y2="168.915" gradientUnits="userSpaceOnUse">
<stop offset="0.310417" stop-color="#4535AF" stop-opacity="0.7"/>
<stop offset="0.461458" stop-color="#F8EFF4" stop-opacity="0.1"/>
<stop offset="0.851637" stop-color="#4535AF" stop-opacity="0.8"/>
</linearGradient>
</defs>
</svg>
