<svg width="58" height="58" viewBox="0 0 58 58" fill="none" xmlns="http://www.w3.org/2000/svg">
<circle cx="29.0522" cy="28.6562" r="28.5312" fill="#4285F4"/>
<g clip-path="url(#clip0_131_88)">
<path d="M38.6912 27.1136C38.6912 35.2103 28.2811 42.1504 28.2811 42.1504C28.2811 42.1504 17.8711 35.2103 17.8711 27.1136C17.8711 24.3527 18.9679 21.7049 20.9201 19.7526C22.8724 17.8004 25.5202 16.7036 28.2811 16.7036C31.042 16.7036 33.6899 17.8004 35.6421 19.7526C37.5944 21.7049 38.6912 24.3527 38.6912 27.1136Z" stroke="white" stroke-width="3.08445" stroke-linecap="round" stroke-linejoin="round"/>
<path d="M28.281 30.5836C30.1975 30.5836 31.7511 29.03 31.7511 27.1136C31.7511 25.1971 30.1975 23.6436 28.281 23.6436C26.3646 23.6436 24.811 25.1971 24.811 27.1136C24.811 29.03 26.3646 30.5836 28.281 30.5836Z" fill="white"/>
</g>
<defs>
<clipPath id="clip0_131_88">
<rect width="27.7601" height="27.7601" fill="white" transform="translate(14.4009 15.5469)"/>
</clipPath>
</defs>
</svg>
