<svg width="58" height="58" viewBox="0 0 58 58" fill="none" xmlns="http://www.w3.org/2000/svg">
<circle cx="29.0522" cy="29.3076" r="28.5312" fill="#FBBC04"/>
<path d="M41.1327 36.4017V40.2573C41.1342 40.6152 41.0609 40.9695 40.9175 41.2974C40.7741 41.6254 40.5638 41.9198 40.3 42.1618C40.0363 42.4037 39.7249 42.5879 39.3858 42.7026C39.0468 42.8173 38.6875 42.8599 38.331 42.8277C34.3763 42.3979 30.5775 41.0466 27.2398 38.8821C24.1346 36.9089 21.5019 34.2762 19.5287 31.171C17.3567 27.8182 16.005 24.0009 15.5832 20.0284C15.5511 19.673 15.5933 19.3148 15.7072 18.9766C15.8211 18.6385 16.0042 18.3277 16.2448 18.0641C16.4853 17.8006 16.7782 17.59 17.1046 17.4458C17.431 17.3017 17.7839 17.227 18.1407 17.2267H21.9963C22.62 17.2205 23.2247 17.4414 23.6976 17.8481C24.1705 18.2548 24.4794 18.8196 24.5667 19.4372C24.7294 20.6711 25.0312 21.8826 25.4663 23.0486C25.6392 23.5086 25.6766 24.0085 25.5741 24.4891C25.4716 24.9698 25.2335 25.4109 24.888 25.7603L23.2558 27.3925C25.0853 30.6101 27.7494 33.2741 30.9669 35.1037L32.5991 33.4715C32.9485 33.1259 33.3897 32.8878 33.8703 32.7853C34.3509 32.6828 34.8508 32.7202 35.3108 32.8931C36.4768 33.3282 37.6883 33.63 38.9222 33.7928C39.5465 33.8808 40.1167 34.1953 40.5242 34.6763C40.9318 35.1574 41.1484 35.7714 41.1327 36.4017Z" stroke="white" stroke-width="3.08445" stroke-linecap="round" stroke-linejoin="round"/>
</svg>
